<svg width="196" height="40" viewBox="0 0 196 40" fill="none" xmlns="http://www.w3.org/2000/svg">
<g clip-path="url(#clip0_1_640)">
<mask id="mask0_1_640" style="mask-type:luminance" maskUnits="userSpaceOnUse" x="0" y="0" width="34" height="40">
<path d="M33.8107 0H0V39.0588H33.8107V0Z" fill="white"/>
</mask>
<g mask="url(#mask0_1_640)">
<path d="M33.8107 23.7583V38.5086C33.8107 38.8127 33.5627 39.059 33.2564 39.059H24.1801C23.8739 39.059 23.6224 38.8093 23.6224 38.5052V25.5082C23.6224 22.2038 20.9089 19.5263 17.5675 19.5263C15.8925 19.5263 14.3784 20.1973 13.2834 21.2796C12.1833 22.3584 11.5041 23.8535 11.5041 25.5082V38.5086C11.5041 38.8127 11.256 39.059 10.9498 39.059H0.576626C0.268665 39.059 0.0188748 38.811 0.0188748 38.5052V16.9727C0.0188748 16.9642 0.0188748 16.9507 0.0137421 16.9422C-0.017054 16.4308 -0.783534 2.13584 15.4648 0.233019C18.3169 -0.0999747 20.9482 -0.0524042 23.3178 0.233019C23.6395 0.272095 23.855 0.583002 23.7832 0.897307L22.0175 8.60882C21.9611 8.85177 21.7489 9.02337 21.4974 9.03186C19.8926 9.08793 18.1869 9.37335 16.4178 9.99007C15.8327 10.1922 15.2664 10.459 14.7343 10.7801C14.1372 11.1454 13.5794 11.5837 13.0901 12.0866C12.6145 12.5759 12.1987 13.1314 11.8651 13.7328C11.5315 14.3343 11.28 14.9799 11.1294 15.6493C11.0473 15.989 10.996 16.3373 10.9652 16.6856C10.9515 16.8368 10.9173 17.0084 10.996 17.1494C11.061 17.265 11.1825 17.3006 11.2988 17.2446C11.4802 17.146 11.5589 16.9574 11.6581 16.7842C11.7744 16.5735 11.9096 16.3713 12.0516 16.1776C12.2809 15.8769 12.5238 15.5847 12.7821 15.3061C13.085 14.9833 13.4049 14.6826 13.7471 14.3988C14.132 14.076 14.5392 13.7838 14.9635 13.5171C15.4443 13.2198 15.9422 12.9581 16.4606 12.7305C17.0406 12.4722 17.6428 12.2616 18.257 12.09C18.9533 11.9014 19.6634 11.7587 20.3785 11.6686C21.1963 11.5616 22.0227 11.5174 22.849 11.5225C27.6532 11.548 30.3924 14.1304 31.9339 16.7094C33.2017 18.8365 33.8125 21.2915 33.8125 23.7583" fill="white"/>
</g>
<mask id="mask1_1_640" style="mask-type:luminance" maskUnits="userSpaceOnUse" x="35" y="12" width="32" height="28">
<path d="M66.3502 12.472H35.2479V40H66.3502V12.472Z" fill="white"/>
</mask>
<g mask="url(#mask1_1_640)">
<path d="M56.3969 25.0017C56.3969 29.718 54.142 32.5348 50.366 32.5348C47.0845 32.5348 45.2043 30.248 45.2043 26.2623V12.8033C45.2043 12.6215 45.0605 12.4737 44.8843 12.4737H35.6096C35.4333 12.4737 35.2896 12.6198 35.2896 12.8016L35.2503 27.5212C35.2297 31.5087 36.3538 34.7876 38.501 37.0048C40.3984 38.9636 43.028 40 46.1076 40C50.5149 40 54.1728 37.9511 56.3867 34.3153C56.5424 34.0588 56.9256 34.142 56.9718 34.441L57.6647 38.8668C57.6904 39.0265 57.8238 39.1437 57.9812 39.1437H66.0327C66.2106 39.1437 66.3526 38.9959 66.3526 38.8141V12.8016C66.3526 12.6198 66.2089 12.472 66.0327 12.472H56.7186C56.5406 12.472 56.3986 12.6198 56.3986 12.8016V25.0017H56.3969Z" fill="white"/>
</g>
<mask id="mask2_1_640" style="mask-type:luminance" maskUnits="userSpaceOnUse" x="67" y="5" width="34" height="35">
<path d="M100.587 5.3228H67.9208V39.8335H100.587V5.3228Z" fill="white"/>
</mask>
<g mask="url(#mask2_1_640)">
<path d="M97.2685 15.6755C95.0854 13.1508 92.0229 11.8138 88.4077 11.8138C84.1835 11.8138 80.4846 13.81 78.387 17.0669C78.2125 17.3387 77.8036 17.2181 77.8036 16.8919V5.6466C77.8036 5.46651 77.6616 5.3204 77.4871 5.3204H68.2397C68.0652 5.3204 67.9232 5.46651 67.9232 5.6466V38.7081C67.9232 38.8882 68.0652 39.0343 68.2397 39.0343H76.2005C76.3528 39.0343 76.4845 38.9222 76.5119 38.7693L77.3656 34.0904C77.4204 33.7947 77.8036 33.7251 77.9491 33.9867C79.9611 37.5919 83.8773 39.8328 88.4077 39.8328C92.0246 39.8328 95.0888 38.5059 97.2685 35.9983C99.4379 33.4991 100.586 29.9891 100.586 25.8488C100.586 21.7084 99.4379 18.1882 97.2685 15.6755ZM84.8987 31.3517C81.3726 31.3517 79.0936 29.1923 79.0936 25.8488C79.0936 22.5052 81.3726 20.2949 84.8987 20.2949C88.4249 20.2949 90.7055 22.473 90.7055 25.8488C90.7055 29.2246 88.4266 31.3517 84.8987 31.3517Z" fill="white"/>
</g>
<mask id="mask3_1_640" style="mask-type:luminance" maskUnits="userSpaceOnUse" x="101" y="11" width="31" height="29">
<path d="M131.174 11.5902H101.812V39.9762H131.174V11.5902Z" fill="white"/>
</mask>
<g mask="url(#mask3_1_640)">
<path d="M127.166 15.4927C124.529 12.9392 120.828 11.5902 116.467 11.5902C112.106 11.5902 108.421 12.9392 105.795 15.4927C103.189 18.0275 101.812 21.58 101.812 25.7662C101.812 29.9524 103.189 33.5304 105.795 36.0686C108.418 38.6255 112.108 39.9762 116.467 39.9762C120.827 39.9762 124.527 38.6255 127.166 36.0703C129.79 33.527 131.176 29.9643 131.176 25.7662C131.176 21.5681 129.79 18.0309 127.166 15.4927ZM116.467 31.4713C112.734 31.4713 110.322 29.2321 110.322 25.7662C110.322 22.3004 112.734 20.0629 116.467 20.0629C120.201 20.0629 122.613 22.3021 122.613 25.7662C122.613 29.2304 120.201 31.4713 116.467 31.4713Z" fill="white"/>
</g>
<mask id="mask4_1_640" style="mask-type:luminance" maskUnits="userSpaceOnUse" x="132" y="4" width="34" height="36">
<path d="M165.23 4.95583H132.232V39.8165H165.23V4.95583Z" fill="white"/>
</mask>
<g mask="url(#mask4_1_640)">
<path d="M132.232 25.6891C132.232 29.8702 133.392 33.4159 135.583 35.9405C137.787 38.4736 140.88 39.8141 144.535 39.8141C149.111 39.8141 153.069 37.5494 155.101 33.9086C155.248 33.6452 155.637 33.7149 155.691 34.0139L156.554 38.7404C156.583 38.8967 156.714 39.0088 156.868 39.0088H164.91C165.088 39.0088 165.23 38.861 165.23 38.6792V5.28302C165.23 5.10123 165.086 4.95343 164.91 4.95343H155.568C155.392 4.95343 155.248 5.10123 155.248 5.28302V16.6422C155.248 16.9718 154.834 17.0941 154.658 16.8189C152.54 13.5297 148.803 11.5131 144.535 11.5131C140.884 11.5131 137.789 12.862 135.583 15.4138C133.392 17.9521 132.232 21.5046 132.232 25.6908M142.213 25.6891C142.213 22.2793 144.516 20.0791 148.08 20.0791C151.643 20.0791 153.943 22.2793 153.943 25.6891C153.943 29.0989 151.64 31.248 148.08 31.248C144.519 31.248 142.213 29.0666 142.213 25.6891Z" fill="white"/>
</g>
<mask id="mask5_1_640" style="mask-type:luminance" maskUnits="userSpaceOnUse" x="166" y="11" width="30" height="29">
<path d="M196 11.7601H166.277V39.8063H196V11.7601Z" fill="white"/>
</mask>
<g mask="url(#mask5_1_640)">
<path d="M195.772 28.3045C195.967 27.3989 195.997 26.5223 195.997 25.8087C195.997 21.6497 194.61 18.1176 191.985 15.5963C189.373 13.0853 185.724 11.7601 181.428 11.7601C172.505 11.7601 166.274 17.5161 166.274 25.7577C166.274 29.9541 167.874 33.5032 170.902 36.0211C173.877 38.4964 178.023 39.8046 182.892 39.8046C187.761 39.8046 192.68 38.4404 195.356 36.0941L195.489 35.9735C195.614 35.8597 195.654 35.6677 195.585 35.5063L193.224 29.9592C193.145 29.7757 192.935 29.7129 192.783 29.8301C190.817 31.3456 187.094 32.3649 183.515 32.3649C179.936 32.3649 177.551 31.2742 176.396 29.3374C176.266 29.1182 176.404 28.8277 176.642 28.8277H195.323C195.529 28.8277 195.707 28.668 195.744 28.4455L195.77 28.3028L195.772 28.3045ZM176.271 23.1363C176.072 23.1363 175.929 22.9273 175.983 22.7183C176.599 20.4043 178.707 18.8498 181.357 18.8498C184.008 18.8498 186.167 20.4485 186.61 22.7455C186.649 22.9477 186.505 23.1363 186.317 23.1363H176.271Z" fill="white"/>
</g>
</g>
<defs>
<clipPath id="clip0_1_640">
<rect width="196" height="40" fill="white"/>
</clipPath>
</defs>
</svg>
