<svg width="368" height="252" viewBox="0 0 368 252" fill="none" xmlns="http://www.w3.org/2000/svg">
<g clip-path="url(#clip0_917_3010)">
<path d="M74.8267 232.303C74.8267 243.187 140.453 252.012 221.413 252.012C302.374 252.012 368 243.187 368 232.303C368 221.418 302.374 212.593 221.413 212.593C140.453 212.593 74.8267 221.418 74.8267 232.303Z" fill="#070606"/>
<path d="M3.69743 78.4451L26.2407 177.228C26.9455 180.347 29.6784 182.541 32.8812 182.64C53.3469 183.355 75.1235 187.016 97.6914 194.904C105.148 197.493 112.382 200.895 119.171 205.024C122.065 206.812 124.897 208.722 127.642 210.781C132.094 214.109 136.298 217.782 140.156 221.764C146.228 228.038 151.533 235.138 155.787 242.842C156.282 243.717 157.407 245.455 157.864 246.355C178.441 247.969 201.294 248.031 226.261 248.031C255.074 248.031 281.945 246.823 304.612 244.728C302.955 233.732 300.247 221.11 295.881 207.773C277.666 152.144 230.552 84.1398 109.847 69.9399C73.4541 65.675 39.8804 66.2789 9.63314 69.9399C5.52762 70.4329 2.78236 74.4267 3.70981 78.4451" fill="#F3DAE3"/>
<path d="M112.246 75.844C120.482 92.4106 140.626 99.2024 157.246 90.9931C173.866 82.7837 180.68 62.7041 172.444 46.1375C164.208 29.5708 144.064 22.779 127.444 30.9884C110.824 39.1854 104.01 59.2774 112.246 75.844Z" fill="white"/>
<path d="M113.557 70.5439C117.007 77.496 125.453 80.331 132.427 76.892C139.402 73.4529 142.246 65.034 138.796 58.082C135.346 51.1422 126.9 48.2948 119.925 51.7339C112.951 55.173 110.107 63.5919 113.557 70.5316" fill="#070606"/>
<path d="M53.7549 48.344C61.9907 64.9106 82.1349 71.7024 98.7548 63.4931C115.375 55.2837 122.176 35.2041 113.953 18.6375C105.717 2.07084 85.5726 -4.72098 68.9527 3.48837C52.3328 11.6977 45.5191 31.7774 53.7549 48.344Z" fill="white"/>
<path d="M55.0661 43.0312C58.5162 49.9833 66.9622 52.8184 73.9366 49.3793C80.911 45.9402 83.7552 37.5213 80.3051 30.5693C76.855 23.6295 68.409 20.7822 61.4346 24.2212C54.4601 27.6603 51.616 36.0792 55.0661 43.0189" fill="#070606"/>
<path d="M88.0705 110.863C79.8842 127.787 64.9955 140.779 45.7293 142.493C26.834 144.169 12.205 133.482 1.22399 119.208C-3.62349 112.922 7.12259 106.771 11.9082 112.983C20.2306 123.794 31.5084 131.695 45.7293 130.154C60.6551 128.539 71.1661 117.482 77.3862 104.626C80.8364 97.4767 91.5082 103.726 88.0581 110.851" fill="#1D362F"/>
</g>
<defs>
<clipPath id="clip0_917_3010">
<rect width="368" height="252" fill="white" transform="matrix(-1 0 0 1 368 0)"/>
</clipPath>
</defs>
</svg>
